<?xml version="1.0" standalone="no"?>
<!DOCTYPE svg PUBLIC "-//W3C//DTD SVG 20010904//EN"
 "http://www.w3.org/TR/2001/REC-SVG-20010904/DTD/svg10.dtd">
<svg version="1.0" xmlns="http://www.w3.org/2000/svg"
 width="260.000000pt" height="260.000000pt" viewBox="0 0 260.000000 260.000000"
 preserveAspectRatio="xMidYMid meet">
<metadata>
Created by potrace 1.11, written by Peter Selinger 2001-2013
</metadata>
<g transform="translate(0.000000,260.000000) scale(0.100000,-0.100000)"
fill="#000000" stroke="none">
<path d="M667 2098 c-7 -19 -340 -884 -473 -1231 -63 -163 -114 -301 -114
-306 0 -5 39 -21 88 -35 48 -15 97 -31 109 -36 14 -6 23 -5 26 3 12 29 287
745 416 1082 78 204 151 390 161 415 10 25 16 48 12 51 -6 6 -203 69 -215 69
-3 0 -7 -6 -10 -12z"/>
<path d="M1475 2093 c-15 -38 -259 -671 -280 -728 -12 -33 -86 -225 -164 -428
-77 -202 -141 -372 -141 -376 0 -9 185 -71 212 -71 8 0 30 46 55 113 49 134
339 889 358 932 21 50 184 479 187 494 2 9 -30 24 -102 47 -58 19 -108 34
-111 34 -4 0 -10 -8 -14 -17z"/>
<path d="M2295 2093 c-4 -10 -40 -103 -80 -208 -387 -1008 -505 -1317 -505
-1325 0 -11 198 -73 214 -67 7 3 54 114 105 248 52 134 117 305 146 379 29 74
74 191 100 260 26 69 53 139 60 155 7 17 44 113 83 215 39 102 78 202 86 222
31 73 30 74 -185 135 -9 3 -19 -3 -24 -14z"/>
</g>
</svg>
