<?xml version="1.0" standalone="no"?>
<!DOCTYPE svg PUBLIC "-//W3C//DTD SVG 20010904//EN"
 "http://www.w3.org/TR/2001/REC-SVG-20010904/DTD/svg10.dtd">
<svg version="1.0" xmlns="http://www.w3.org/2000/svg"
 width="260.000000pt" height="260.000000pt" viewBox="0 0 260.000000 260.000000"
 preserveAspectRatio="xMidYMid meet">
<metadata>
Created by potrace 1.11, written by Peter Selinger 2001-2013
</metadata>
<g transform="translate(0.000000,260.000000) scale(0.100000,-0.100000)"
fill="#000000" stroke="none">
<path d="M495 1758 c-60 -159 -296 -772 -342 -891 -14 -37 -24 -69 -22 -71 3
-3 39 -16 81 -29 l76 -24 63 161 c34 89 72 188 84 221 13 33 57 150 100 260
124 318 184 479 182 481 -4 4 -144 44 -154 44 -5 0 -35 -69 -68 -152z"/>
<path d="M922 1358 c-117 -304 -212 -556 -212 -560 0 -8 128 -48 154 -48 9 0
16 5 16 12 0 10 229 615 251 663 17 38 169 439 166 441 -4 4 -144 44 -154 44
-5 0 -105 -249 -221 -552z"/>
<path d="M1648 1713 c-282 -733 -350 -914 -347 -918 3 -2 39 -15 81 -28 l76
-24 52 136 c28 75 56 145 61 156 13 29 278 721 299 781 l18 52 -71 21 c-40 12
-77 21 -83 21 -5 0 -44 -89 -86 -197z"/>
<path d="M2141 1458 c-96 -249 -179 -466 -186 -483 -26 -61 -67 -176 -64 -179
7 -5 159 -55 159 -52 0 2 97 254 215 561 118 307 214 560 212 561 -4 4 -144
44 -154 44 -5 0 -87 -204 -182 -452z"/>
</g>
</svg>
